<?xml version="1.0" standalone="no"?>
<!DOCTYPE svg PUBLIC "-//W3C//DTD SVG 20010904//EN"
 "http://www.w3.org/TR/2001/REC-SVG-20010904/DTD/svg10.dtd">
<svg version="1.0" xmlns="http://www.w3.org/2000/svg"
 width="604.000000pt" height="604.000000pt" viewBox="0 0 604.000000 604.000000"
 preserveAspectRatio="xMidYMid meet">
<metadata>
Created by potrace 1.11, written by Peter Selinger 2001-2013
</metadata>
<g transform="translate(0.000000,604.000000) scale(0.100000,-0.100000)"
fill="#000000" stroke="none">
<path d="M2871 4676 c-13 -7 -45 -44 -72 -82 -93 -133 -199 -293 -199 -299 0
-3 32 -5 72 -3 l72 3 80 117 c44 64 84 114 88 112 9 -6 78 -111 78 -119 0 -3
-31 -5 -70 -5 l-70 0 -34 -47 c-19 -26 -32 -51 -30 -55 7 -11 424 -10 424 0 0
5 -52 86 -115 182 -135 204 -164 229 -224 196z"/>
<path d="M3353 4680 c-12 -5 -26 -17 -31 -27 -11 -19 -85 -275 -97 -330 l-7
-33 60 0 59 0 17 68 c10 37 23 85 30 107 l13 40 51 -101 c28 -56 58 -104 67
-108 32 -12 82 -6 97 12 8 9 34 56 58 104 44 86 45 86 56 58 7 -15 18 -54 24
-86 19 -90 22 -94 85 -94 66 0 66 -1 29 132 -14 51 -31 116 -39 143 -23 85
-32 101 -63 114 -52 22 -76 0 -148 -136 -27 -51 -52 -93 -55 -93 -4 0 -17 19
-29 43 -61 116 -84 154 -106 175 -27 24 -37 26 -71 12z"/>
<path d="M5124 4680 c-25 -10 -276 -368 -268 -381 3 -5 36 -9 73 -9 l68 0 78
115 c43 63 82 115 86 115 9 0 69 -94 69 -108 0 -8 -22 -12 -65 -12 -65 0 -65
0 -95 -42 -51 -70 -55 -68 180 -68 178 0 210 2 210 15 0 21 -215 340 -246 364
-28 22 -55 25 -90 11z"/>
<path d="M736 4628 l-37 -53 183 -6 c101 -3 184 -6 186 -7 2 -1 2 -14 0 -29
l-3 -28 -180 -5 -180 -5 -3 -102 -3 -103 61 0 60 0 0 50 0 50 84 0 84 0 42
-50 42 -50 74 0 c51 0 74 4 74 12 0 7 -21 34 -47 60 l-47 47 37 36 c34 33 37
40 37 94 0 51 -3 60 -32 88 -46 43 -92 53 -254 53 l-141 0 -37 -52z"/>
<path d="M1260 4485 l0 -195 178 0 178 0 37 50 c20 27 37 52 37 55 0 3 -70 5
-155 5 -148 0 -155 1 -155 20 0 19 7 20 113 20 l112 1 28 36 c46 62 44 63
-113 63 -118 0 -140 2 -140 15 0 12 20 15 118 15 l119 0 30 43 c16 23 33 48
37 55 6 9 -39 12 -208 12 l-216 0 0 -195z"/>
<path d="M1720 4485 l0 -195 60 0 59 0 3 75 3 74 80 -74 80 -74 88 -1 c66 0
88 3 85 12 -3 7 -40 41 -84 77 -43 35 -94 76 -112 91 l-33 27 111 83 c60 46
110 87 110 92 0 4 -37 8 -83 8 l-84 0 -75 -65 c-42 -36 -79 -65 -82 -65 -3 0
-6 29 -6 65 l0 65 -60 0 -60 0 0 -195z"/>
<path d="M2214 4667 c-2 -7 -3 -94 -2 -192 l3 -180 165 -3 165 -2 33 48 c17
26 32 51 32 55 0 4 -61 7 -135 7 l-135 0 0 140 0 140 -60 0 c-40 0 -62 -4 -66
-13z"/>
<path d="M3930 4485 l0 -195 178 0 178 0 35 48 c19 26 36 50 37 55 2 4 -64 7
-147 7 -144 0 -151 1 -151 20 0 19 7 20 108 20 l109 0 31 44 c18 24 32 47 32
50 0 3 -63 6 -140 6 -118 0 -140 2 -140 15 0 12 19 15 115 15 l114 0 29 43
c16 23 32 48 36 55 6 9 -39 12 -208 12 l-216 0 0 -195z"/>
<path d="M4426 4633 c-20 -25 -36 -50 -36 -55 0 -4 69 -8 154 -8 85 0 161 -3
170 -6 44 -17 1 -24 -143 -24 -198 0 -191 4 -191 -125 0 -51 3 -100 6 -109 5
-14 32 -16 198 -16 162 0 196 3 226 18 59 29 77 98 41 158 -16 26 -17 33 -5
49 19 25 18 85 -2 113 -31 45 -63 52 -227 52 l-154 0 -37 -47z m300 -204 c13
-21 -21 -29 -111 -27 -76 3 -90 6 -93 21 -3 15 7 17 97 17 62 0 102 -4 107
-11z"/>
<path d="M5446 4664 c-10 -26 -7 -206 5 -249 24 -90 100 -129 249 -130 82 0
102 3 144 25 84 42 90 58 94 226 l3 144 -65 0 -66 0 0 -120 c0 -152 -5 -160
-113 -160 -112 0 -117 6 -117 140 0 59 -3 115 -6 124 -5 12 -20 16 -64 16 -44
0 -59 -4 -64 -16z"/>
<path d="M4241 4116 c-12 -14 -26 -92 -171 -951 -39 -225 -90 -527 -114 -670
-25 -143 -77 -449 -116 -680 -40 -231 -73 -436 -74 -455 l-1 -35 470 -3 c517
-3 598 2 731 49 146 51 262 126 380 243 93 94 151 175 204 290 60 126 51 83
209 1016 33 195 79 461 101 590 22 129 54 317 71 418 17 101 28 186 24 190 -4
4 -388 8 -854 10 -733 3 -849 1 -860 -12z m1133 -575 c72 -29 124 -75 154
-135 82 -164 19 -454 -124 -571 l-46 -38 31 -24 c18 -14 44 -48 59 -76 25 -48
27 -61 27 -162 -1 -237 -93 -418 -256 -500 -97 -49 -159 -54 -706 -55 -277 0
-503 4 -503 8 0 9 34 231 103 672 l43 275 505 5 c383 4 509 8 526 18 32 18 54
65 55 119 0 39 -4 51 -26 70 l-27 23 -491 0 c-401 0 -489 2 -485 13 3 7 64 98
137 201 l132 187 417 -3 c410 -3 417 -4 475 -27z"/>
<path d="M4450 2612 c-24 -8 -27 -19 -41 -124 -11 -85 -10 -101 2 -109 8 -6
149 -8 339 -7 285 3 329 5 351 20 35 22 59 76 59 132 0 57 -24 81 -89 90 -58
8 -599 6 -621 -2z"/>
<path d="M616 4112 c-3 -5 -18 -89 -35 -188 -16 -98 -51 -300 -76 -449 -26
-148 -50 -295 -55 -325 -4 -30 -18 -109 -30 -175 -12 -66 -26 -149 -31 -185
-5 -36 -11 -72 -14 -80 -3 -8 -9 -44 -14 -80 -6 -36 -24 -144 -40 -240 -48
-279 -121 -710 -131 -770 -5 -30 -18 -107 -29 -170 -10 -63 -17 -118 -14 -123
2 -4 217 -7 476 -7 593 0 644 7 844 106 226 113 419 336 503 584 18 54 116
590 151 830 5 36 12 71 14 79 3 8 10 41 15 75 5 34 18 115 30 181 11 66 25
147 30 180 5 33 30 179 55 325 26 146 51 294 56 329 5 35 12 74 15 87 l6 24
-860 0 c-474 0 -863 -4 -866 -8z m1388 -554 c-10 -17 -143 -213 -211 -310
l-53 -77 -323 -3 c-296 -3 -325 -5 -362 -23 -183 -89 -284 -269 -272 -485 7
-132 57 -214 157 -259 41 -19 65 -21 291 -21 l245 0 18 116 c11 70 15 119 9
125 -5 5 -129 10 -277 11 l-269 3 75 100 c40 55 95 130 122 168 l48 67 344 0
c390 0 353 10 335 -87 -5 -26 -17 -97 -26 -158 -16 -105 -29 -192 -60 -390 -8
-49 -21 -135 -30 -190 -8 -55 -18 -115 -21 -132 l-5 -33 -403 0 c-247 0 -425
4 -461 11 -156 29 -303 156 -368 319 -112 281 -55 662 138 935 108 152 242
250 413 301 75 22 89 23 515 23 348 1 437 -2 431 -11z"/>
<path d="M2501 3888 c-12 -58 -98 -560 -111 -648 -5 -30 -25 -147 -44 -260
-19 -113 -53 -311 -75 -440 -22 -129 -61 -356 -86 -505 -26 -148 -51 -295 -55
-325 -5 -30 -14 -82 -19 -115 -6 -33 -11 -66 -11 -73 0 -11 87 -13 473 -10
l472 4 80 27 c235 82 423 251 525 474 45 97 55 144 120 533 16 102 35 208 40
235 10 54 146 853 160 945 5 30 13 79 19 109 6 29 11 64 11 77 l0 24 -744 0
-745 0 -10 -52z m409 -163 c-8 -10 -30 -15 -61 -15 -47 0 -89 -23 -89 -49 0
-18 30 -32 65 -29 45 4 50 22 7 26 -51 5 -22 32 34 32 48 0 50 -3 33 -62 -9
-34 -13 -38 -42 -38 -106 0 -151 32 -127 90 18 42 54 59 129 60 55 0 62 -2 51
-15z m211 5 c25 -14 24 -45 -2 -71 -18 -18 -20 -26 -11 -40 19 -31 -19 -35
-45 -5 -30 36 -80 36 -93 1 -17 -46 -46 -25 -35 25 6 29 7 29 83 32 61 2 77 6
77 18 0 12 -16 16 -68 18 -59 3 -67 5 -57 17 15 18 121 21 151 5z m220 -57
c35 -79 32 -83 -59 -83 -60 0 -62 1 -50 20 9 13 24 20 45 20 18 0 33 2 33 5 0
12 -24 55 -31 55 -4 0 -25 -20 -46 -44 -34 -38 -83 -69 -83 -51 0 17 125 145
142 145 14 0 27 -18 49 -67z m259 58 c0 -6 -28 -29 -62 -53 l-61 -43 53 -5
c49 -5 52 -6 35 -20 -22 -18 -156 -21 -162 -3 -2 6 24 31 58 55 l62 43 -52 3
c-45 3 -51 5 -41 18 14 16 170 21 170 5z m-420 -435 c59 -39 75 -76 74 -171 0
-44 -6 -98 -13 -120 -22 -63 -77 -142 -121 -173 -21 -15 -39 -33 -40 -40 0 -7
11 -35 26 -63 31 -63 41 -57 86 52 l32 79 35 -6 c122 -19 142 -27 135 -48 -19
-63 -89 -208 -124 -254 -22 -29 -40 -56 -40 -61 0 -12 48 -31 80 -31 22 0 30
-5 30 -17 -1 -41 -30 -197 -40 -207 -5 -5 -38 -10 -73 -10 -64 -1 -75 4 -163
69 -9 6 -20 3 -36 -12 -61 -56 -189 -79 -285 -52 -99 27 -160 127 -157 254 4
146 61 258 169 330 51 33 54 38 43 58 -8 14 -13 62 -13 127 0 94 3 111 27 160
59 122 141 173 266 166 47 -3 73 -10 102 -30z"/>
<path d="M2991 3114 c-12 -15 -21 -39 -21 -55 0 -35 30 -99 46 -99 20 0 63 58
70 95 13 73 -52 113 -95 59z"/>
<path d="M2848 2663 c-90 -98 -40 -254 69 -212 63 24 65 32 23 117 -20 42 -40
87 -44 100 -9 29 -17 28 -48 -5z"/>
</g>
</svg>
